<svg xmlns="http://www.w3.org/2000/svg" width="263.208" height="156.639" viewBox="0 0 263.208 156.639">
  <g id="Grupo_46" data-name="Grupo 46" transform="translate(0 -0.018)">
    <path id="Trazado_276" data-name="Trazado 276" d="M691.45,234.273l2.23-.386c.214-.037.426-.083.64-.122a18.305,18.305,0,0,1,11.688-33.744l-2.923,6.955,6.925-6.046a.318.318,0,0,1,.047.016,18.306,18.306,0,0,1,11.185,23.349c-.116.33-.254.645-.386.963a21.887,21.887,0,0,0,5.36-3.59c3.1-2.967,4.792-7.061,6.688-12.1,3.756-10,7.372-20.136,10.843-30.3a18.3,18.3,0,0,1-8.555-22.159c.186-.528.4-1.037.63-1.537.057-.125.115-.249.174-.373.232-.479.477-.949.746-1.4.044-.074.093-.143.138-.216q.351-.57.741-1.106c.1-.134.193-.268.293-.4.294-.385.6-.759.92-1.117.107-.12.221-.231.331-.348q.37-.391.761-.758c.137-.129.273-.259.414-.383.036-.032.07-.067.106-.1l.005.007a18.294,18.294,0,0,1,23.406-.526l-3.8,9.05,6.846-5.975a18.2,18.2,0,0,1,.677,21.56l.019.006c-.075.11-.16.21-.237.318q-.217.3-.443.6c-.194.25-.4.492-.6.731-.156.18-.309.362-.471.535-.237.254-.485.494-.735.732-.146.139-.286.286-.436.42q-.59.527-1.221,1c-.148.111-.3.208-.454.314-.3.208-.592.413-.9.6-.19.118-.386.225-.58.336-.281.16-.564.315-.854.46-.2.1-.411.2-.62.3-.3.135-.6.261-.9.38-.2.08-.407.161-.613.234-.341.12-.687.224-1.035.324-.176.051-.348.108-.526.153-.522.133-1.05.246-1.584.333-.1.016-.2.023-.3.037-.443.064-.888.116-1.336.148-.193.014-.387.016-.58.023-.363.014-.726.021-1.09.014-.213,0-.425-.016-.639-.028q-.533-.03-1.067-.093c-.211-.024-.42-.049-.631-.08-.381-.058-.762-.134-1.143-.216l-.075-.014q-2.2,6.431-4.477,12.834a18.294,18.294,0,0,1,26.526,2.187l-6.329,7,8.569-3.421a18.243,18.243,0,0,1,.732,13.936,17.959,17.959,0,0,1-2.325,4.5,18.3,18.3,0,0,1-33.065-8.028c-.161.43-.317.866-.478,1.3-1.673,4.45-3.754,9.988-7.934,13.992a32.1,32.1,0,0,1-9.663,5.891q-3.266,1.422-6.62,2.629a18.347,18.347,0,0,1-8.192,2.611c-3.528.98-7.1,1.8-10.705,2.43l-2.248.388c-2.02.346-4.092.7-6.148,1.113.3.088.593.172.887.275A18.312,18.312,0,0,1,699.274,258.5l-14.094,4.326,12.754,2.025a18.315,18.315,0,0,1-30.517,5.416q.194.651.39,1.3c.259.859.516,1.714.763,2.56,3.356,11.531,1.912,20.6-4.068,25.541l-3.244-3.927c5.819-4.807,4.014-14.713,2.421-20.19-.242-.831-.495-1.67-.749-2.514-2.186-7.261-4.664-15.492-1.454-23.056C666.31,238.578,680.25,236.191,691.45,234.273Z" transform="translate(-514.528 -144.859)" fill="#f2f2f2"/>
    <path id="Trazado_277" data-name="Trazado 277" d="M445.191,424.591H346.44a12.21,12.21,0,0,1-12.21-12.21V367.138a4.837,4.837,0,0,1,1.509-3.511l52.328-49.6a11.262,11.262,0,0,1,15.5,0l49.892,47.294a12.644,12.644,0,0,1,3.945,9.176v41.886a12.21,12.21,0,0,1-12.21,12.21Z" transform="translate(-272.399 -268.306)" fill="#3f3d56"/>
    <path id="Trazado_278" data-name="Trazado 278" d="M240.954,387.992H363.1v49.337a7.373,7.373,0,0,1-7.373,7.373h-107.4a7.373,7.373,0,0,1-7.373-7.373V387.992Z" transform="translate(-179.123 -288.417)" opacity="0.1"/>
    <path id="Trazado_279" data-name="Trazado 279" d="M333.73,521.351" transform="translate(-272.028 -424.727)" fill="none" stroke="#3f3d56" stroke-miterlimit="10" stroke-width="1"/>
    <rect id="Rectángulo_170" data-name="Rectángulo 170" width="90.839" height="90.839" rx="26.181" transform="translate(77.869 60.699)" fill="#3795f6"/>
    <path id="Trazado_280" data-name="Trazado 280" d="M394.293,395.942v49.923H303.454V395.942l45.419,21.953Z" transform="translate(-225.586 -294.327)" opacity="0.1"/>
    <path id="Trazado_281" data-name="Trazado 281" d="M395.316,555.181l-58.2-28.128a2.361,2.361,0,0,0-3.389,2.126v48.4a7.373,7.373,0,0,0,7.373,7.373H449.528a7.373,7.373,0,0,0,7.373-7.373V530.007a2.881,2.881,0,0,0-4.135-2.594Z" transform="translate(-272.027 -428.791)" fill="#3f3d56"/>
    <rect id="Rectángulo_171" data-name="Rectángulo 171" width="25.404" height="3.593" transform="translate(85.695 69.038)" fill="#f2f2f2"/>
    <rect id="Rectángulo_172" data-name="Rectángulo 172" width="75.443" height="2.053" transform="translate(83.642 82.125)" fill="#f2f2f2"/>
    <rect id="Rectángulo_173" data-name="Rectángulo 173" width="75.443" height="2.053" transform="translate(83.642 89.054)" fill="#f2f2f2"/>
    <rect id="Rectángulo_174" data-name="Rectángulo 174" width="75.443" height="2.053" transform="translate(83.642 95.982)" fill="#f2f2f2"/>
    <line id="Línea_3" data-name="Línea 3" x2="230.164" transform="translate(15.641 156.156)" fill="none" stroke="#2f2e41" stroke-miterlimit="10" stroke-width="1"/>
    <path id="Trazado_282" data-name="Trazado 282" d="M93.275,630.212c0,15.13,9.492,27.372,21.221,27.372" transform="translate(-93.275 -505.654)" fill="#46455b"/>
    <path id="Trazado_283" data-name="Trazado 283" d="M175.975,656.694c0-15.3,10.592-27.68,23.682-27.68" transform="translate(-154.754 -504.763)" fill="#3795f6"/>
    <path id="Trazado_284" data-name="Trazado 284" d="M123.239,635.557c0,14.372,6.053,26,13.532,26" transform="translate(-115.55 -509.627)" fill="#3795f6"/>
    <path id="Trazado_285" data-name="Trazado 285" d="M175.975,634.42c0-19.549,12.243-35.369,27.372-35.369" transform="translate(-154.754 -482.489)" fill="#46455b"/>
    <path id="Trazado_286" data-name="Trazado 286" d="M158.577,732.924s3.01-.093,3.917-.739,4.629-1.417,4.854-.381,4.523,5.152,1.125,5.179-7.895-.529-8.8-1.081S158.577,732.924,158.577,732.924Z" transform="translate(-141.82 -580.8)" fill="#a8a8a8"/>
    <path id="Trazado_287" data-name="Trazado 287" d="M168.534,741.322c-3.4.027-7.895-.529-8.8-1.081-.689-.42-.964-1.927-1.056-2.622l-.1,0s.191,2.427,1.1,2.979,5.4,1.108,8.8,1.081c.981-.008,1.32-.357,1.3-.874C169.638,741.122,169.264,741.317,168.534,741.322Z" transform="translate(-141.82 -585.5)" opacity="0.2"/>
    <ellipse id="Elipse_91" data-name="Elipse 91" cx="5.911" cy="18.83" rx="5.911" ry="18.83" transform="matrix(0.829, -0.559, 0.559, 0.829, 232.347, 109.09)" fill="#2f2e41"/>
    <ellipse id="Elipse_92" data-name="Elipse 92" cx="37.66" cy="37.66" rx="37.66" ry="37.66" transform="translate(171.228 64.882)" fill="#2f2e41"/>
    <rect id="Rectángulo_207" data-name="Rectángulo 207" width="11.441" height="19.499" transform="translate(190.453 133.24) rotate(0.16)" fill="#2f2e41"/>
    <rect id="Rectángulo_208" data-name="Rectángulo 208" width="11.441" height="20.499" transform="translate(214.527 132.112) rotate(0.16)" fill="#2f2e41"/>
    <ellipse id="Elipse_93" data-name="Elipse 93" cx="9.534" cy="3.575" rx="9.534" ry="3.575" transform="translate(201.873 156.417) rotate(-179.84)" fill="#2f2e41"/>
    <ellipse id="Elipse_94" data-name="Elipse 94" cx="9.534" cy="3.575" rx="9.534" ry="3.575" transform="translate(225.924 156.005) rotate(-179.84)" fill="#2f2e41"/>
    <ellipse id="Elipse_95" data-name="Elipse 95" cx="12.871" cy="12.871" rx="12.871" ry="12.871" transform="translate(196.997 80.139)" fill="#fff"/>
    <ellipse id="Elipse_96" data-name="Elipse 96" cx="4.29" cy="4.29" rx="4.29" ry="4.29" transform="translate(198.578 86.912)" fill="#3f3d56"/>
    <ellipse id="Elipse_97" data-name="Elipse 97" cx="18.83" cy="5.911" rx="18.83" ry="5.911" transform="translate(180.963 99.589) rotate(-154.465)" fill="#2f2e41"/>
    <path id="Trazado_314" data-name="Trazado 314" d="M939.246,710.5c.7,2.069,3.721,9.06,14.253,9.089s15.485-7.335,15.5-11.02-4.965,1.961-15.5,1.931S938.548,708.429,939.246,710.5Z" transform="translate(-743.158 -591.298)" fill="#fff"/>
  </g>
</svg>
