<svg xmlns="http://www.w3.org/2000/svg" width="185.624" height="152.543" viewBox="0 0 185.624 152.543">
  <g id="Grupo_246" data-name="Grupo 246" transform="translate(-91.997 -0.003)">
    <g id="Grupo_239" data-name="Grupo 239" transform="translate(240.628 63.971)" opacity="0.5">
      <path id="Trazado_647" data-name="Trazado 647" d="M854.32,278.35a10.9,10.9,0,0,0-14.21,1.32,11.13,11.13,0,0,0,.44,15.51l13.58,13.5a2.27,2.27,0,0,0,3.21,0l13.5-13.58a11.13,11.13,0,0,0,.36-15.51,10.88,10.88,0,0,0-14.2-1.25,2.3,2.3,0,0,1-2.68.01Z" transform="translate(-837.177 -276.274)" fill="#f55f44"/>
      <path id="Trazado_648" data-name="Trazado 648" d="M855.83,308.15a2,2,0,0,0,0,1.89,9.762,9.762,0,0,1,.53.88c.35.87-.26,1.82-.88,2.53-.39.45-.82,1.05-.57,1.6a2.07,2.07,0,0,0,.46.52,3.34,3.34,0,0,1-1.27,5.58" transform="translate(-837.177 -276.274)" fill="none" stroke="#f55f44" stroke-miterlimit="10" stroke-width="1"/>
    </g>
    <g id="Grupo_240" data-name="Grupo 240" transform="translate(91.997 86.839)" opacity="0.5">
      <path id="Trazado_649" data-name="Trazado 649" d="M274.32,352.35a10.9,10.9,0,0,0-14.21,1.32,11.13,11.13,0,0,0,.44,15.51l13.58,13.5a2.27,2.27,0,0,0,3.21,0l13.5-13.58a11.13,11.13,0,0,0,.36-15.51,10.88,10.88,0,0,0-14.2-1.25A2.3,2.3,0,0,1,274.32,352.35Z" transform="translate(-257.177 -350.274)" fill="#f55f44"/>
      <path id="Trazado_650" data-name="Trazado 650" d="M275.83,382.15a2,2,0,0,0,0,1.89,9.773,9.773,0,0,1,.53.88c.35.87-.26,1.82-.88,2.53-.39.45-.82,1.05-.57,1.6a2.069,2.069,0,0,0,.46.52,3.34,3.34,0,0,1-1.27,5.58" transform="translate(-257.177 -350.274)" fill="none" stroke="#f55f44" stroke-miterlimit="10" stroke-width="1"/>
    </g>
    <g id="Grupo_241" data-name="Grupo 241" transform="translate(179.376 0.003)" opacity="0.5">
      <path id="Trazado_651" data-name="Trazado 651" d="M654.32,71.35a10.9,10.9,0,0,0-14.21,1.32,11.13,11.13,0,0,0,.44,15.51l13.58,13.5a2.27,2.27,0,0,0,3.21,0l13.5-13.58a11.13,11.13,0,0,0,.36-15.51A10.88,10.88,0,0,0,657,71.34a2.3,2.3,0,0,1-2.68.01Z" transform="translate(-637.177 -69.273)" fill="#f55f44"/>
      <path id="Trazado_652" data-name="Trazado 652" d="M655.83,101.15a2,2,0,0,0,0,1.89,9.781,9.781,0,0,1,.53.88c.35.87-.26,1.82-.88,2.53-.39.45-.82,1-.57,1.6a2.07,2.07,0,0,0,.46.52,3.34,3.34,0,0,1-1.27,5.58" transform="translate(-637.177 -69.273)" fill="none" stroke="#f55f44" stroke-miterlimit="10" stroke-width="1"/>
    </g>
    <g id="Grupo_242" data-name="Grupo 242" transform="translate(223.758 34.392)" opacity="0.5">
      <rect id="Rectángulo_362" data-name="Rectángulo 362" width="3" height="17" transform="translate(7)" fill="#f69837"/>
      <rect id="Rectángulo_363" data-name="Rectángulo 363" width="3" height="17" transform="translate(17 7) rotate(90)" fill="#f69837"/>
    </g>
    <g id="Grupo_243" data-name="Grupo 243" transform="translate(176.793 135.547)" opacity="0.5">
      <rect id="Rectángulo_364" data-name="Rectángulo 364" width="3" height="17" transform="translate(7)" fill="#f69837"/>
      <rect id="Rectángulo_365" data-name="Rectángulo 365" width="3" height="17" transform="translate(17 7) rotate(90)" fill="#f69837"/>
    </g>
    <g id="Grupo_244" data-name="Grupo 244" transform="translate(137.345 46.896)" opacity="0.5">
      <rect id="Rectángulo_366" data-name="Rectángulo 366" width="3" height="17" transform="translate(7)" fill="#f69837"/>
      <rect id="Rectángulo_367" data-name="Rectángulo 367" width="3" height="17" transform="translate(17 7) rotate(90)" fill="#f69837"/>
    </g>
    <g id="Grupo_245" data-name="Grupo 245" transform="translate(256.631 127.547)" opacity="0.5">
      <rect id="Rectángulo_368" data-name="Rectángulo 368" width="3" height="17" transform="translate(7)" fill="#f69837"/>
      <rect id="Rectángulo_369" data-name="Rectángulo 369" width="3" height="17" transform="translate(17 7) rotate(90)" fill="#f69837"/>
    </g>
    <path id="Trazado_653" data-name="Trazado 653" d="M742.27,331.06a3.68,3.68,0,0,1-2-4.44,1.187,1.187,0,0,0,.08-.41h0A1.84,1.84,0,0,0,737,325h0a2.08,2.08,0,0,0-.2.36,3.68,3.68,0,0,1-4.44,2,1.86,1.86,0,0,0-.41-.08h0a1.84,1.84,0,0,0-1.22,3.31h0a1.819,1.819,0,0,0,.36.2,3.67,3.67,0,0,1,2,4.44,2,2,0,0,0-.08.41h0a1.84,1.84,0,0,0,3.31,1.22h0a1.579,1.579,0,0,0,.2-.36,3.69,3.69,0,0,1,4.45-2.05,1.771,1.771,0,0,0,.4.08h0a1.84,1.84,0,0,0,1.22-3.31h0A1.581,1.581,0,0,0,742.27,331.06Z" transform="translate(-509.336 -231.754)" fill="#3795f6" opacity="0.5"/>
    <path id="Trazado_654" data-name="Trazado 654" d="M377.27,293.06a3.68,3.68,0,0,1-2-4.44,1.19,1.19,0,0,0,.08-.41h0A1.84,1.84,0,0,0,372,287h0a2.079,2.079,0,0,0-.2.36,3.68,3.68,0,0,1-4.44,2,1.863,1.863,0,0,0-.41-.08h0a1.84,1.84,0,0,0-1.22,3.31h0a1.819,1.819,0,0,0,.36.2,3.67,3.67,0,0,1,2.05,4.44,2,2,0,0,0-.08.41h0a1.84,1.84,0,0,0,3.31,1.22h0a1.58,1.58,0,0,0,.2-.36,3.69,3.69,0,0,1,4.45-2.05,1.77,1.77,0,0,0,.4.08h0a1.84,1.84,0,0,0,1.22-3.31h0a1.578,1.578,0,0,0-.37-.16Z" transform="translate(-195.521 -199.534)" fill="#3795f6" opacity="0.5"/>
    <path id="Trazado_655" data-name="Trazado 655" d="M521.27,98.06a3.68,3.68,0,0,1-2-4.44,1.189,1.189,0,0,0,.08-.41h0A1.84,1.84,0,0,0,516,92h0a2.081,2.081,0,0,0-.2.36,3.68,3.68,0,0,1-4.44,2.05,1.86,1.86,0,0,0-.41-.08h0a1.84,1.84,0,0,0-1.22,3.31h0a1.82,1.82,0,0,0,.36.2,3.67,3.67,0,0,1,2.05,4.44,2,2,0,0,0-.08.41h0a1.84,1.84,0,0,0,3.31,1.22h0a1.579,1.579,0,0,0,.2-.36,3.69,3.69,0,0,1,4.45-2.05,1.77,1.77,0,0,0,.4.08h0a1.84,1.84,0,0,0,1.22-3.31h0A1.58,1.58,0,0,0,521.27,98.06Z" transform="translate(-401.042 -67.27)" fill="#3795f6" opacity="0.5"/>
  </g>
</svg>
