<svg id="Grupo_382" data-name="Grupo 382" xmlns="http://www.w3.org/2000/svg" xmlns:xlink="http://www.w3.org/1999/xlink" width="191.717" height="182.516" viewBox="0 0 191.717 182.516">
  <defs>
    <linearGradient id="linear-gradient" x1="0.509" y1="0.997" x2="0.509" y2="-0.003" gradientUnits="objectBoundingBox">
      <stop offset="0" stop-color="gray" stop-opacity="0.251"/>
      <stop offset="0.54" stop-color="gray" stop-opacity="0.122"/>
      <stop offset="1" stop-color="gray" stop-opacity="0.102"/>
    </linearGradient>
    <linearGradient id="linear-gradient-2" x1="0.813" y1="0.841" x2="0.813" y2="-0.159" xlink:href="#linear-gradient"/>
    <linearGradient id="linear-gradient-3" x1="1.78" y1="0.849" x2="1.78" y2="-0.151" xlink:href="#linear-gradient"/>
    <linearGradient id="linear-gradient-4" x1="0.5" y1="1" x2="0.5" y2="0" xlink:href="#linear-gradient"/>
    <linearGradient id="linear-gradient-6" x1="0.5" y1="0.999" x2="0.5" y2="-0.001" xlink:href="#linear-gradient"/>
  </defs>
  <rect id="Rectángulo_396" data-name="Rectángulo 396" width="102.154" height="141.144" transform="matrix(0.978, -0.21, 0.21, 0.978, 16.157, 31.671)" fill="#e0e0e0"/>
  <g id="Grupo_378" data-name="Grupo 378" transform="translate(18.347 12.936)" opacity="0.5">
    <rect id="Rectángulo_397" data-name="Rectángulo 397" width="98.702" height="136.374" transform="matrix(0.978, -0.21, 0.21, 0.978, 0, 20.707)" fill="url(#linear-gradient)"/>
  </g>
  <rect id="Rectángulo_398" data-name="Rectángulo 398" width="96.189" height="133.36" transform="matrix(0.978, -0.21, 0.21, 0.978, 19.785, 34.36)" fill="#fafafa"/>
  <rect id="Rectángulo_399" data-name="Rectángulo 399" width="47.718" height="11.559" transform="matrix(0.978, -0.21, 0.21, 0.978, 42.391, 23.597)" fill="url(#linear-gradient-2)"/>
  <path id="Trazado_690" data-name="Trazado 690" d="M443.733,91.419a6.83,6.83,0,1,0,7.948,5.278A6.751,6.751,0,0,0,443.733,91.419Zm2.26,10.542a3.941,3.941,0,1,1,2.936-4.675,3.894,3.894,0,0,1-2.936,4.675Z" transform="translate(-380.384 -83.867)" fill="url(#linear-gradient-3)"/>
  <rect id="Rectángulo_400" data-name="Rectángulo 400" width="46.713" height="11.049" transform="matrix(0.978, -0.21, 0.21, 0.978, 42.779, 23.006)" fill="#f69837"/>
  <path id="Trazado_691" data-name="Trazado 691" d="M444.015,91.419a6.529,6.529,0,1,0,7.754,5.014A6.529,6.529,0,0,0,444.015,91.419Zm2.16,10.075a3.768,3.768,0,1,1,2.894-4.474A3.768,3.768,0,0,1,446.175,101.494Z" transform="translate(-380.666 -83.866)" fill="#f69837"/>
  <rect id="Rectángulo_401" data-name="Rectángulo 401" width="102.154" height="141.144" transform="translate(60.282 27.328)" fill="#e0e0e0"/>
  <g id="Grupo_379" data-name="Grupo 379" transform="translate(62.01 29.715)" opacity="0.5">
    <rect id="Rectángulo_402" data-name="Rectángulo 402" width="98.702" height="136.374" fill="url(#linear-gradient-4)"/>
  </g>
  <rect id="Rectángulo_403" data-name="Rectángulo 403" width="96.189" height="133.36" transform="translate(63.265 30.72)" fill="#fff"/>
  <rect id="Rectángulo_404" data-name="Rectángulo 404" width="47.718" height="11.559" transform="translate(87.627 24.937)" fill="url(#linear-gradient-4)"/>
  <path id="Trazado_692" data-name="Trazado 692" d="M644.991,118a6.832,6.832,0,1,0,6.671,6.83A6.752,6.752,0,0,0,644.991,118Zm0,10.771a3.941,3.941,0,1,1,3.848-3.941,3.894,3.894,0,0,1-3.848,3.922Z" transform="translate(-533.505 -104.347)" fill="url(#linear-gradient-6)"/>
  <rect id="Rectángulo_405" data-name="Rectángulo 405" width="46.713" height="11.049" transform="translate(88.129 24.441)" fill="#f69837"/>
  <path id="Trazado_693" data-name="Trazado 693" d="M645.459,118a6.529,6.529,0,1,0,6.529,6.529A6.529,6.529,0,0,0,645.459,118Zm0,10.3a3.772,3.772,0,1,0,0-.012Z" transform="translate(-533.973 -104.347)" fill="#f69837"/>
  <g id="Grupo_380" data-name="Grupo 380" transform="translate(1.517 172.287)" opacity="0.5">
    <rect id="Rectángulo_406" data-name="Rectángulo 406" width="0.879" height="4.986" transform="translate(2.052)" fill="#47e6b1"/>
    <rect id="Rectángulo_407" data-name="Rectángulo 407" width="0.879" height="4.986" transform="translate(4.986 2.055) rotate(90)" fill="#47e6b1"/>
  </g>
  <g id="Grupo_381" data-name="Grupo 381" transform="translate(103.485)" opacity="0.5">
    <rect id="Rectángulo_408" data-name="Rectángulo 408" width="0.879" height="4.986" transform="translate(2.052)" fill="#47e6b1"/>
    <rect id="Rectángulo_409" data-name="Rectángulo 409" width="0.879" height="4.986" transform="translate(4.986 2.052) rotate(90)" fill="#47e6b1"/>
  </g>
  <path id="Trazado_694" data-name="Trazado 694" d="M949.193,825.615a1.078,1.078,0,0,1-.6-1.3.521.521,0,0,0,.023-.119h0a.54.54,0,0,0-.97-.358h0a.517.517,0,0,0-.061.105,1.078,1.078,0,0,1-1.3.6.519.519,0,0,0-.119-.023h0a.54.54,0,0,0-.358.97h0a.519.519,0,0,0,.105.061,1.078,1.078,0,0,1,.6,1.3.519.519,0,0,0-.023.119h0a.54.54,0,0,0,.97.358h0a.514.514,0,0,0,.061-.105,1.078,1.078,0,0,1,1.3-.6.516.516,0,0,0,.119.023h0a.54.54,0,0,0,.358-.97h0a.525.525,0,0,0-.105-.061Z" transform="translate(-768.951 -645.027)" fill="#4d8af0" opacity="0.5"/>
  <path id="Trazado_695" data-name="Trazado 695" d="M314.783,620.555a1.078,1.078,0,0,1-.6-1.3.52.52,0,0,0,.023-.119h0a.54.54,0,0,0-.97-.358h0a.52.52,0,0,0-.061.105,1.078,1.078,0,0,1-1.3.6.518.518,0,0,0-.119-.023h0a.54.54,0,0,0-.358.97h0a.519.519,0,0,0,.105.061,1.078,1.078,0,0,1,.6,1.3.518.518,0,0,0-.023.119h0a.54.54,0,0,0,.97.358h0a.519.519,0,0,0,.061-.105,1.078,1.078,0,0,1,1.3-.6.519.519,0,0,0,.119.023h0a.54.54,0,0,0,.358-.97h0A.519.519,0,0,0,314.783,620.555Z" transform="translate(-282.836 -487.9)" fill="#fdd835" opacity="0.5"/>
  <path id="Trazado_696" data-name="Trazado 696" d="M843.193,121.235a1.078,1.078,0,0,1-.6-1.3.516.516,0,0,0,.023-.119h0a.54.54,0,0,0-.97-.358h0a.522.522,0,0,0-.061.105,1.078,1.078,0,0,1-1.3.6.52.52,0,0,0-.119-.023h0a.54.54,0,0,0-.358.97h0a.521.521,0,0,0,.105.061,1.078,1.078,0,0,1,.6,1.3.522.522,0,0,0-.023.119h0a.54.54,0,0,0,.97.358h0a.519.519,0,0,0,.061-.105,1.078,1.078,0,0,1,1.3-.6.519.519,0,0,0,.119.023h0a.54.54,0,0,0,.358-.97h0A.519.519,0,0,0,843.193,121.235Z" transform="translate(-687.729 -105.297)" fill="#fdd835" opacity="0.5"/>
  <circle id="Elipse_211" data-name="Elipse 211" cx="1.76" cy="1.76" r="1.76" transform="translate(188.196 71.748)" fill="#f55f44" opacity="0.5"/>
  <circle id="Elipse_212" data-name="Elipse 212" cx="1.76" cy="1.76" r="1.76" transform="translate(52.174 172.771)" fill="#f55f44" opacity="0.5"/>
  <circle id="Elipse_213" data-name="Elipse 213" cx="1.76" cy="1.76" r="1.76" transform="translate(170.12 109.794)" fill="#f55f44" opacity="0.5"/>
  <circle id="Elipse_214" data-name="Elipse 214" cx="1.76" cy="1.76" r="1.76" transform="translate(18.609 20.762)" fill="#4d8af0" opacity="0.5"/>
  <circle id="Elipse_215" data-name="Elipse 215" cx="1.76" cy="1.76" r="1.76" transform="translate(0 68.777)" fill="#47e6b1" opacity="0.5"/>
</svg>
