<svg xmlns="http://www.w3.org/2000/svg" width="249.58" height="173.075" viewBox="0 0 249.58 173.075">
  <g id="Grupo_121" data-name="Grupo 121" transform="translate(0 -8.592)" opacity="0.5">
    <g id="Grupo_116" data-name="Grupo 116" transform="translate(64.84 8.592)" opacity="0.3">
      <path id="Trazado_534" data-name="Trazado 534" d="M391.471,105.281a.613.613,0,0,0-1,.712c.114.173.237.338.356.5a19.746,19.746,0,0,1,2.832,6.643,3.1,3.1,0,0,1,.13,1.752,10.962,10.962,0,0,0-.3-4.573A28.451,28.451,0,0,0,391.876,106,3.9,3.9,0,0,0,391.471,105.281Z" transform="translate(-377.379 -100.093)" fill="#f69837" opacity="0.5"/>
      <path id="Trazado_535" data-name="Trazado 535" d="M350.828,124.419a.765.765,0,0,0-.128,1.523c.253.02.511.025.753.031a23.479,23.479,0,0,1,8.5,2.321,3.614,3.614,0,0,1,1.75,1.214,12.789,12.789,0,0,0-4.535-3.21,33.438,33.438,0,0,0-5.346-1.727A4.655,4.655,0,0,0,350.828,124.419Z" transform="translate(-346.086 -115.139)" fill="#f69837"/>
      <path id="Trazado_536" data-name="Trazado 536" d="M353.4,140.594c-.614.022-.477.9.141.9.161,0,.323,0,.477-.013a17.526,17.526,0,0,1,5.666,1.013,2.89,2.89,0,0,1,1.275.641,10.239,10.239,0,0,0-3.311-1.7,25.454,25.454,0,0,0-3.6-.793A3.247,3.247,0,0,0,353.4,140.594Z" transform="translate(-348.393 -127.689)" fill="#f69837" opacity="0.2"/>
      <path id="Trazado_537" data-name="Trazado 537" d="M409.961,185.492c.175.589.986.24.838-.361-.04-.157-.087-.311-.13-.448a17.386,17.386,0,0,1-.426-5.74,2.894,2.894,0,0,1,.3-1.394,10.176,10.176,0,0,0-.824,3.629,25.271,25.271,0,0,0,.125,3.688,3.21,3.21,0,0,0,.112.625Z" transform="translate(-392.388 -156.367)" fill="#f69837" opacity="0.5"/>
      <path id="Trazado_538" data-name="Trazado 538" d="M358.758,102.491c-.37-.065-.4.473-.029.556l.287.054a10.608,10.608,0,0,1,3.255,1.324,1.765,1.765,0,0,1,.672.544,6.193,6.193,0,0,0-1.761-1.436,15.476,15.476,0,0,0-2.052-.932A2.031,2.031,0,0,0,358.758,102.491Z" transform="translate(-352.629 -98.12)" fill="#f69837" opacity="0.2"/>
      <path id="Trazado_539" data-name="Trazado 539" d="M332.844,159.768c-.939.482-.146,1.806.818,1.367.253-.114.5-.244.733-.365a28.541,28.541,0,0,1,9.468-2.464,4.637,4.637,0,0,1,2.4.123,16.281,16.281,0,0,0-6.273-.376,40.931,40.931,0,0,0-6.121,1.317A5.49,5.49,0,0,0,332.844,159.768Z" transform="translate(-332.421 -141.13)" fill="#f69837"/>
      <path id="Trazado_540" data-name="Trazado 540" d="M345.512,172.266c-.672.63.376,1.371,1.084.768.186-.159.361-.325.529-.484a28.43,28.43,0,0,1,7.469-4.564,17.509,17.509,0,0,1,4.122-.609,30.9,30.9,0,0,0-7.521,1.55,42,42,0,0,0-4.9,2.751A5.3,5.3,0,0,0,345.512,172.266Z" transform="translate(-342.41 -148.473)" fill="#f69837" opacity="0.5"/>
      <path id="Trazado_541" data-name="Trazado 541" d="M367.639,186.009c-.2.9,1.091.914,1.329.016.063-.224.114-.473.161-.7a28.438,28.438,0,0,1,3.551-8,17.484,17.484,0,0,1,3.045-2.845,30.922,30.922,0,0,0-5.305,5.552,41.593,41.593,0,0,0-2.464,5.052A5.469,5.469,0,0,0,367.639,186.009Z" transform="translate(-359.731 -153.985)" fill="#f69837"/>
      <path id="Trazado_542" data-name="Trazado 542" d="M405.956,83.424c-.448-.934-1.77-.166-1.344.8.108.251.224.5.347.73a28.289,28.289,0,0,1,2.263,9.41,4.638,4.638,0,0,1-.159,2.379,16.288,16.288,0,0,0,.466-6.208,40.961,40.961,0,0,0-1.2-6.083A5.375,5.375,0,0,0,405.956,83.424Z" transform="translate(-388.371 -83.001)" fill="#f69837"/>
      <path id="Trazado_543" data-name="Trazado 543" d="M374.433,89.036a.17.17,0,0,0,.078.025.146.146,0,0,0,.108-.1c.114-.249.049-.571.224-.782a2.739,2.739,0,0,1,.428.717l.672-.208a1.017,1.017,0,0,1-.128.773,1.026,1.026,0,0,1,.316.224.354.354,0,0,1,.083.356,1.694,1.694,0,0,1-.475.047,3.165,3.165,0,0,1-.052.9.124.124,0,0,1-.222.085,1.548,1.548,0,0,1-.553-.587l-.246.569a.264.264,0,0,1-.112.15.179.179,0,0,1-.208-.072.542.542,0,0,1-.076-.224l-.092-.569a.144.144,0,0,0-.031-.081.155.155,0,0,0-.1-.029h-.712c-.04-.125.085-.244.206-.3s.267-.094.327-.213c.125-.24-.2-.574-.06-.782S374.225,88.933,374.433,89.036Z" transform="translate(-364.159 -87.02)" fill="#f69837"/>
      <path id="Trazado_544" data-name="Trazado 544" d="M427.85,105.281a.613.613,0,0,1,1,.712c-.114.173-.237.338-.356.5a19.746,19.746,0,0,0-2.832,6.643,3.1,3.1,0,0,0-.13,1.752,10.962,10.962,0,0,1,.3-4.573A28.451,28.451,0,0,1,427.444,106,3.9,3.9,0,0,1,427.85,105.281Z" transform="translate(-404.577 -100.093)" fill="#f69837" opacity="0.5"/>
      <path id="Trazado_545" data-name="Trazado 545" d="M440.343,124.419a.765.765,0,0,1,.128,1.523c-.253.02-.511.025-.753.031a23.479,23.479,0,0,0-8.5,2.321,3.614,3.614,0,0,0-1.75,1.214A12.789,12.789,0,0,1,434,126.3a33.44,33.44,0,0,1,5.346-1.727A4.655,4.655,0,0,1,440.343,124.419Z" transform="translate(-407.725 -115.139)" fill="#f69837"/>
      <path id="Trazado_546" data-name="Trazado 546" d="M450.639,140.6c.614.022.477.9-.141.9-.161,0-.323,0-.477-.013a17.526,17.526,0,0,0-5.666,1.013,2.938,2.938,0,0,0-1.275.641,10.238,10.238,0,0,1,3.311-1.7,25.454,25.454,0,0,1,3.616-.789A3.246,3.246,0,0,1,450.639,140.6Z" transform="translate(-418.286 -127.692)" fill="#f69837" opacity="0.5"/>
      <path id="Trazado_547" data-name="Trazado 547" d="M457.335,102.491c.37-.065.4.473.029.556l-.287.054a10.608,10.608,0,0,0-3.255,1.324,1.766,1.766,0,0,0-.672.544,6.193,6.193,0,0,1,1.761-1.436,15.473,15.473,0,0,1,2.052-.932A2.031,2.031,0,0,1,457.335,102.491Z" transform="translate(-426.1 -98.12)" fill="#f69837" opacity="0.2"/>
      <path id="Trazado_548" data-name="Trazado 548" d="M426.57,201.294c-.083.365-.591.184-.524-.188.018-.1.04-.193.06-.285a10.621,10.621,0,0,0,.034-3.515,1.758,1.758,0,0,0-.24-.836,6.225,6.225,0,0,1,.645,2.178,15.483,15.483,0,0,1,.067,2.254A1.927,1.927,0,0,1,426.57,201.294Z" transform="translate(-404.955 -171.048)" fill="#f69837" opacity="0.2"/>
      <path id="Trazado_549" data-name="Trazado 549" d="M451.293,187.139c.289.488-.419.448-.73-.034-.083-.128-.157-.255-.224-.379a26.505,26.505,0,0,0-3.564-4.4,4.907,4.907,0,0,0-1.1-.952,17.421,17.421,0,0,1,2.9,2.464c.865.9,1.629,1.846,2.375,2.787A4.523,4.523,0,0,1,451.293,187.139Z" transform="translate(-420.296 -159.331)" fill="#f69837" opacity="0.5"/>
      <path id="Trazado_550" data-name="Trazado 550" d="M355.925,187.139c-.289.488.421.448.733-.034.081-.128.157-.255.224-.379a26.375,26.375,0,0,1,3.562-4.4,4.966,4.966,0,0,1,1.107-.952,17.331,17.331,0,0,0-2.9,2.464c-.865.9-1.629,1.846-2.377,2.787a4.85,4.85,0,0,0-.352.518Z" transform="translate(-350.605 -159.331)" fill="#f69837" opacity="0.2"/>
      <path id="Trazado_551" data-name="Trazado 551" d="M397.873,201.294c.085.365.591.184.524-.188-.016-.1-.04-.193-.06-.285a10.682,10.682,0,0,1-.034-3.515,1.761,1.761,0,0,1,.242-.836,6.229,6.229,0,0,0-.647,2.178,15.483,15.483,0,0,0-.067,2.254,2.1,2.1,0,0,0,.043.392Z" transform="translate(-383.163 -171.048)" fill="#f69837" opacity="0.2"/>
      <path id="Trazado_552" data-name="Trazado 552" d="M444.135,118.882c.37-.063.4.475.029.556-.1.022-.195.038-.287.054a10.664,10.664,0,0,0-3.255,1.324,1.792,1.792,0,0,0-.672.544,6.273,6.273,0,0,1,1.763-1.436,15.564,15.564,0,0,1,2.05-.93A2.016,2.016,0,0,1,444.135,118.882Z" transform="translate(-415.857 -110.84)" fill="#f69837" opacity="0.2"/>
      <path id="Trazado_553" data-name="Trazado 553" d="M432.962,86.551c.318-.2.547.291.224.5-.081.056-.166.108-.246.157a10.692,10.692,0,0,0-2.525,2.444,1.792,1.792,0,0,0-.414.768,6.25,6.25,0,0,1,1.1-1.989,15.526,15.526,0,0,1,1.555-1.631A2.029,2.029,0,0,1,432.962,86.551Z" transform="translate(-408.136 -85.72)" fill="#f69837" opacity="0.2"/>
      <path id="Trazado_554" data-name="Trazado 554" d="M450.812,159.768c.939.482.146,1.806-.818,1.367-.253-.114-.5-.244-.733-.365a28.541,28.541,0,0,0-9.468-2.464,4.637,4.637,0,0,0-2.4.123,16.281,16.281,0,0,1,6.273-.376,40.932,40.932,0,0,1,6.121,1.317A5.491,5.491,0,0,1,450.812,159.768Z" transform="translate(-413.871 -141.13)" fill="#f69837"/>
      <path id="Trazado_555" data-name="Trazado 555" d="M439.6,172.266c.672.63-.376,1.371-1.084.768-.186-.159-.361-.325-.529-.484a28.429,28.429,0,0,0-7.469-4.564,17.509,17.509,0,0,0-4.122-.609,30.9,30.9,0,0,1,7.521,1.55,42,42,0,0,1,4.9,2.751A5.3,5.3,0,0,1,439.6,172.266Z" transform="translate(-405.343 -148.473)" fill="#f69837" opacity="0.5"/>
      <path id="Trazado_556" data-name="Trazado 556" d="M427.118,187.4c.083.916-1.2.768-1.32-.152-.031-.242-.052-.484-.072-.712a28.215,28.215,0,0,0-2.52-8.384,17.479,17.479,0,0,0-2.666-3.2,30.769,30.769,0,0,1,4.57,6.172,41.744,41.744,0,0,1,1.817,5.321A5.048,5.048,0,0,1,427.118,187.4Z" transform="translate(-400.796 -154.35)" fill="#f69837"/>
      <path id="Trazado_557" data-name="Trazado 557" d="M447.1,89.036a.17.17,0,0,1-.078.025.146.146,0,0,1-.108-.1c-.114-.249-.049-.571-.224-.782a2.74,2.74,0,0,0-.428.717l-.672-.208a1.017,1.017,0,0,0,.128.773,1.026,1.026,0,0,0-.316.224.354.354,0,0,0-.083.356,1.694,1.694,0,0,0,.475.047,3.166,3.166,0,0,0,.052.9.124.124,0,0,0,.222.085,1.548,1.548,0,0,0,.553-.587l.251.6a.264.264,0,0,0,.112.15.179.179,0,0,0,.208-.072.543.543,0,0,0,.076-.224l.092-.569a.143.143,0,0,1,.031-.081.155.155,0,0,1,.1-.029h.712c.04-.125-.085-.244-.206-.3s-.267-.094-.327-.213c-.125-.24.2-.574.06-.782S447.309,88.933,447.1,89.036Z" transform="translate(-420.011 -87.02)" fill="#f69837"/>
      <path id="Trazado_558" data-name="Trazado 558" d="M456.158,212.826a.166.166,0,0,1-.078.022c-.052,0-.087-.052-.11-.1-.114-.249-.047-.574-.224-.782a2.647,2.647,0,0,0-.428.717l-.672-.208a1,1,0,0,0,.128.773,1.035,1.035,0,0,0-.318.224.347.347,0,0,0-.081.356,1.693,1.693,0,0,0,.475.047,3.17,3.17,0,0,0,.049.9.166.166,0,0,0,.058.112.164.164,0,0,0,.166-.027,1.582,1.582,0,0,0,.553-.587l.251.6a.28.28,0,0,0,.11.15.181.181,0,0,0,.211-.074.529.529,0,0,0,.074-.224l.094-.569a.143.143,0,0,1,.031-.081.15.15,0,0,1,.1-.029h.715c.04-.125-.087-.244-.208-.3s-.264-.092-.327-.211c-.123-.24.2-.576.06-.782C456.624,212.483,456.366,212.723,456.158,212.826Z" transform="translate(-427.036 -183.076)" fill="#f69837" opacity="0.2"/>
      <path id="Trazado_559" data-name="Trazado 559" d="M481.641,129.846a.17.17,0,0,1-.078.025.146.146,0,0,1-.108-.1c-.117-.249-.049-.571-.224-.782a2.657,2.657,0,0,0-.428.719l-.672-.208a1,1,0,0,0,.128.771,1.026,1.026,0,0,0-.316.224.354.354,0,0,0-.083.356,1.693,1.693,0,0,0,.475.047,3.083,3.083,0,0,0,.052.885.166.166,0,0,0,.056.114c.049.031.114,0,.166-.029a1.568,1.568,0,0,0,.553-.587l.251.6a.264.264,0,0,0,.112.15.179.179,0,0,0,.208-.072.531.531,0,0,0,.076-.224l.092-.569a.143.143,0,0,1,.031-.081.155.155,0,0,1,.1-.029h.712c.04-.125-.085-.242-.208-.3s-.264-.094-.325-.224c-.125-.24.195-.574.061-.782C482.118,129.5,481.849,129.743,481.641,129.846Z" transform="translate(-446.812 -118.687)" fill="#f69837"/>
      <path id="Trazado_560" data-name="Trazado 560" d="M377.273,224.072a.224.224,0,0,1-.11.034c-.072,0-.121-.072-.15-.137-.159-.347-.067-.8-.314-1.089a3.739,3.739,0,0,0-.6,1l-.939-.289a1.4,1.4,0,0,0,.177,1.075,1.427,1.427,0,0,0-.448.3.491.491,0,0,0-.116.5,2.368,2.368,0,0,0,.672.067,4.37,4.37,0,0,0,.072,1.232.224.224,0,0,0,.081.157c.067.045.159,0,.224-.038a2.162,2.162,0,0,0,.771-.818l.349.833a.37.37,0,0,0,.157.208.249.249,0,0,0,.291-.1.742.742,0,0,0,.1-.316l.132-.793a.181.181,0,0,1,.043-.112.19.19,0,0,1,.139-.04c.332,0,.661-.013.992-.011.056-.175-.119-.338-.287-.412s-.372-.13-.448-.3c-.173-.334.276-.8.085-1.091C377.931,223.595,377.571,223.928,377.273,224.072Z" transform="translate(-365.267 -191.542)" fill="#f69837"/>
      <path id="Trazado_561" data-name="Trazado 561" d="M334.932,131.154a.224.224,0,0,1-.11.034c-.072,0-.121-.072-.15-.137-.159-.347-.067-.8-.314-1.091a3.717,3.717,0,0,0-.6,1l-.939-.291a1.387,1.387,0,0,0,.177,1.075,1.468,1.468,0,0,0-.448.3.493.493,0,0,0-.117.5,2.548,2.548,0,0,0,.672.067,4.377,4.377,0,0,0,.072,1.232.235.235,0,0,0,.078.157.224.224,0,0,0,.224-.038,2.169,2.169,0,0,0,.771-.82l.349.833a.374.374,0,0,0,.155.211.251.251,0,0,0,.294-.1.721.721,0,0,0,.1-.316l.13-.793a.2.2,0,0,1,.045-.112.208.208,0,0,1,.139-.04h.992c.056-.177-.119-.341-.289-.414s-.37-.13-.448-.293c-.173-.336.276-.8.085-1.091C335.584,130.677,335.232,131.011,334.932,131.154Z" transform="translate(-332.412 -119.439)" fill="#f69837"/>
      <path id="Trazado_562" data-name="Trazado 562" d="M467.646,190.634a.137.137,0,0,1-.058.018c-.038,0-.063-.038-.081-.074-.083-.184-.036-.423-.166-.578a1.961,1.961,0,0,0-.316.531l-.5-.155a.742.742,0,0,0,.094.571.784.784,0,0,0-.224.161.26.26,0,0,0-.06.262,1.237,1.237,0,0,0,.352.036,2.374,2.374,0,0,0,.038.654.121.121,0,0,0,.043.083c.036.025.085,0,.121-.02a1.12,1.12,0,0,0,.41-.435l.186.448a.2.2,0,0,0,.083.11.128.128,0,0,0,.155-.054.356.356,0,0,0,.056-.166l.069-.423a.094.094,0,0,1,.022-.058.116.116,0,0,1,.074-.022h.526c.031-.094-.063-.181-.152-.224s-.2-.069-.242-.157c-.092-.177.146-.426.045-.58S467.8,190.558,467.646,190.634Z" transform="translate(-436.321 -166.028)" fill="#f69837" opacity="0.2"/>
      <path id="Trazado_563" data-name="Trazado 563" d="M410.08,223.864a.146.146,0,0,1-.061.018c-.036,0-.063-.038-.078-.074-.085-.184-.036-.423-.168-.578a1.962,1.962,0,0,0-.316.531l-.5-.155a.751.751,0,0,0,.094.571.8.8,0,0,0-.224.161.255.255,0,0,0-.063.262,1.258,1.258,0,0,0,.354.036,2.288,2.288,0,0,0,.036.654.121.121,0,0,0,.043.083.116.116,0,0,0,.123-.02,1.158,1.158,0,0,0,.41-.435l.184.448a.206.206,0,0,0,.083.11.132.132,0,0,0,.157-.054.381.381,0,0,0,.054-.166l.069-.423a.132.132,0,0,1,.022-.058.125.125,0,0,1,.074-.022h.529c.029-.094-.063-.179-.155-.224s-.195-.069-.24-.157c-.092-.177.143-.426.043-.58S410.232,223.788,410.08,223.864Z" transform="translate(-391.649 -191.813)" fill="#f69837" opacity="0.2"/>
      <path id="Trazado_564" data-name="Trazado 564" d="M354.377,107.554a.136.136,0,0,1-.058.018c-.038,0-.063-.038-.078-.072-.085-.186-.036-.423-.168-.58a1.994,1.994,0,0,0-.316.531l-.5-.152a.737.737,0,0,0,.094.569.814.814,0,0,0-.235.161.26.26,0,0,0-.06.262,1.252,1.252,0,0,0,.352.036,2.372,2.372,0,0,0,.038.654.13.13,0,0,0,.043.085.121.121,0,0,0,.121-.02,1.147,1.147,0,0,0,.41-.448l.186.448a.2.2,0,0,0,.083.112.134.134,0,0,0,.155-.054.375.375,0,0,0,.056-.168l.069-.421a.11.11,0,0,1,.022-.06.121.121,0,0,1,.074-.022h.529c.029-.094-.065-.179-.155-.224s-.2-.069-.242-.157c-.092-.177.146-.426.045-.578S354.525,107.478,354.377,107.554Z" transform="translate(-348.42 -101.561)" fill="#f69837" opacity="0.5"/>
      <path id="Trazado_565" data-name="Trazado 565" d="M383.995,173.094a.112.112,0,0,1-.058.018c-.038,0-.065-.038-.081-.072-.085-.184-.036-.423-.166-.58a2.039,2.039,0,0,0-.318.533l-.5-.155a.409.409,0,0,1-.141.73.26.26,0,0,0-.06.264,1.234,1.234,0,0,0,.352.034,2.3,2.3,0,0,0,.038.656.126.126,0,0,0,.043.083.121.121,0,0,0,.121-.02,1.14,1.14,0,0,0,.406-.437l.186.448a.2.2,0,0,0,.083.112.134.134,0,0,0,.155-.054.4.4,0,0,0,.056-.168l.069-.421a.1.1,0,0,1,.022-.06.1.1,0,0,1,.074-.02h.527c.031-.092-.063-.179-.152-.224s-.2-.069-.242-.155c-.092-.179.146-.428.045-.58S384.15,173.029,383.995,173.094Z" transform="translate(-371.402 -152.418)" fill="#f69837" opacity="0.5"/>
      <path id="Trazado_566" data-name="Trazado 566" d="M362.508,147.544a.112.112,0,0,1-.058.018c-.038,0-.063-.038-.078-.072-.085-.186-.036-.423-.168-.58a1.972,1.972,0,0,0-.316.533l-.5-.155a.744.744,0,0,0,.094.571.73.73,0,0,0-.224.159.26.26,0,0,0-.063.264,1.344,1.344,0,0,0,.352.034,2.388,2.388,0,0,0,.038.656.125.125,0,0,0,.043.083.121.121,0,0,0,.121-.02,1.162,1.162,0,0,0,.412-.435l.184.448a.2.2,0,0,0,.083.112.134.134,0,0,0,.155-.054.374.374,0,0,0,.056-.168l.069-.421a.11.11,0,0,1,.022-.061.105.105,0,0,1,.074-.02h.529c.029-.092-.065-.179-.155-.224s-.2-.069-.242-.157c-.092-.177.146-.426.045-.578S362.663,147.468,362.508,147.544Z" transform="translate(-354.736 -132.592)" fill="#f69837" opacity="0.5"/>
      <path id="Trazado_567" data-name="Trazado 567" d="M454.9,153.564a.137.137,0,0,1-.058.018c-.038,0-.065-.038-.081-.074-.085-.184-.036-.423-.166-.578a1.968,1.968,0,0,0-.318.531l-.5-.155a.733.733,0,0,0,.094.571.823.823,0,0,0-.235.159.26.26,0,0,0-.06.264,1.237,1.237,0,0,0,.352.036,2.292,2.292,0,0,0,.036.654.114.114,0,0,0,.045.083c.036.025.083,0,.121-.02a1.158,1.158,0,0,0,.41-.435l.186.448a.186.186,0,0,0,.083.11.13.13,0,0,0,.155-.054.381.381,0,0,0,.054-.168l.069-.421a.112.112,0,0,1,.025-.058.105.105,0,0,1,.074-.022h.526c.029-.094-.063-.181-.152-.224s-.2-.069-.242-.157c-.092-.179.146-.426.045-.58S455.047,153.488,454.9,153.564Z" transform="translate(-426.418 -137.263)" fill="#f69837" opacity="0.5"/>
      <path id="Trazado_568" data-name="Trazado 568" d="M410.08,148.534a.145.145,0,0,1-.06.018c-.036,0-.063-.038-.078-.072-.085-.186-.036-.423-.168-.58a1.994,1.994,0,0,0-.316.531l-.5-.152a.413.413,0,0,1-.13.73.26.26,0,0,0-.063.264,1.344,1.344,0,0,0,.354.034,2.288,2.288,0,0,0,.036.654.094.094,0,0,0,.166.065,1.192,1.192,0,0,0,.41-.435l.184.448a.2.2,0,0,0,.083.112.139.139,0,0,0,.157-.054.4.4,0,0,0,.054-.168l.069-.421a.13.13,0,0,1,.022-.06.11.11,0,0,1,.074-.02h.529c.029-.092-.063-.179-.155-.224s-.195-.069-.24-.157c-.092-.177.143-.426.043-.578S410.233,148.458,410.08,148.534Z" transform="translate(-391.649 -133.36)" fill="#f69837" opacity="0.2"/>
      <path id="Trazado_569" data-name="Trazado 569" d="M396.016,154.654a.112.112,0,0,1-.058.018c-.038,0-.063-.038-.078-.072-.085-.186-.036-.423-.168-.58a1.971,1.971,0,0,0-.316.533l-.5-.155a.744.744,0,0,0,.094.571.766.766,0,0,0-.224.159.264.264,0,0,0-.06.264,1.344,1.344,0,0,0,.352.034,2.388,2.388,0,0,0,.038.656.125.125,0,0,0,.043.083.121.121,0,0,0,.121-.02,1.14,1.14,0,0,0,.41-.435l.186.448a.2.2,0,0,0,.083.112.134.134,0,0,0,.155-.054.374.374,0,0,0,.056-.168l.069-.421a.1.1,0,0,1,.022-.06.105.105,0,0,1,.074-.02h.529c.029-.092-.065-.179-.155-.224s-.2-.069-.242-.155c-.092-.179.146-.428.045-.58S396.171,154.578,396.016,154.654Z" transform="translate(-380.739 -138.109)" fill="#f69837" opacity="0.3"/>
      <path id="Trazado_570" data-name="Trazado 570" d="M382.865,117.614a.108.108,0,0,1-.058.016c-.038,0-.065-.038-.081-.072-.085-.184-.036-.423-.166-.578a1.967,1.967,0,0,0-.318.531l-.5-.155a.409.409,0,0,1-.141.73.26.26,0,0,0-.06.264,1.322,1.322,0,0,0,.352.036,2.292,2.292,0,0,0,.036.654.119.119,0,0,0,.045.083c.036.022.083,0,.121-.02a1.174,1.174,0,0,0,.41-.435l.186.448a.193.193,0,0,0,.081.11.134.134,0,0,0,.157-.054.39.39,0,0,0,.049-.173l.069-.421a.112.112,0,0,1,.025-.06.1.1,0,0,1,.074-.02h.526c.029-.094-.063-.181-.152-.224s-.2-.067-.242-.155c-.092-.179.146-.426.045-.58S383.017,117.536,382.865,117.614Z" transform="translate(-370.525 -109.367)" fill="#f69837" opacity="0.2"/>
      <path id="Trazado_571" data-name="Trazado 571" d="M408.73,165.954a.146.146,0,0,1-.06.018c-.038,0-.063-.038-.078-.074-.085-.184-.036-.423-.168-.578a1.961,1.961,0,0,0-.316.531l-.5-.155a.75.75,0,0,0,.094.571.775.775,0,0,0-.224.161.255.255,0,0,0-.063.262,1.252,1.252,0,0,0,.352.036,2.374,2.374,0,0,0,.038.654.121.121,0,0,0,.043.083.112.112,0,0,0,.121-.02,1.147,1.147,0,0,0,.412-.435l.184.448a.2.2,0,0,0,.083.11.134.134,0,0,0,.157-.052.4.4,0,0,0,.054-.168l.069-.423a.11.11,0,0,1,.022-.058.121.121,0,0,1,.074-.022h.529c.029-.094-.065-.179-.155-.224s-.2-.069-.242-.157c-.092-.177.146-.426.045-.578S408.88,165.878,408.73,165.954Z" transform="translate(-390.601 -146.877)" fill="#f69837" opacity="0.3"/>
    </g>
    <g id="Grupo_117" data-name="Grupo 117" transform="translate(30.693 97.625)" opacity="0.1">
      <path id="Trazado_572" data-name="Trazado 572" d="M180.347,480.873a2.4,2.4,0,0,1-.285-.011H180V480.4A1.841,1.841,0,0,1,180.347,480.873Z" transform="translate(-180 -480.4)" fill="#3f3d56"/>
    </g>
    <path id="Trazado_573" data-name="Trazado 573" d="M152.8,723.765a9.435,9.435,0,0,1-.2,1.974c-.025.123-.054.242-.081.358-.724,2.9-2.762,5.021-5.2,5.153h-.246c-2.574,0-4.75-2.218-5.467-5.276-.022-.081-.038-.161-.056-.244a9.286,9.286,0,0,1-.2-1.974c0-4.143,2.563-7.5,5.726-7.5S152.8,719.623,152.8,723.765Z" transform="translate(-119.315 -565.793)" fill="#3f3d56"/>
    <path id="Trazado_574" data-name="Trazado 574" d="M152.772,723.8a9.434,9.434,0,0,1-.2,1.974c-.025.123-.054.242-.081.358h-.258a11.7,11.7,0,0,1-1.873-.258,11.276,11.276,0,0,1-1.669.381,11.5,11.5,0,0,1-1.308.123h-.448a11.708,11.708,0,0,1-1.568-.1,11.393,11.393,0,0,1-2.464-.612,11.6,11.6,0,0,1-1.329.356c-.022-.081-.038-.161-.056-.244a9.286,9.286,0,0,1-.2-1.974c0-4.142,2.563-7.5,5.726-7.5S152.772,719.662,152.772,723.8Z" transform="translate(-119.284 -565.831)" opacity="0.1"/>
    <path id="Trazado_575" data-name="Trazado 575" d="M117.623,629.029a11.6,11.6,0,0,0-1.246-5.243l-6.737,2.093,5.912-3.475a11.621,11.621,0,0,0-8.738-4.985,11.633,11.633,0,0,0-.9-1.2l-9.683,3.011,7.935-4.664a11.65,11.65,0,0,0-18.32,6.206l8.289,9.537-9-6.5A11.65,11.65,0,0,0,95.56,644.353a11.677,11.677,0,0,0,7.452.2,11.65,11.65,0,0,0,14.137-11.365,7.341,7.341,0,0,0-.027-.771,11.58,11.58,0,0,0,.5-3.392Z" transform="translate(-71.919 -485.023)" fill="#f69837"/>
    <path id="Trazado_576" data-name="Trazado 576" d="M117.205,687.781a31.049,31.049,0,0,0-10.779-.137c-4.044.672-8.177,2.142-12.132,1.064-2.321-.63-4.331-2.09-6.6-2.912a12.476,12.476,0,0,0-6.813-.4,11.65,11.65,0,0,0,14.428,15.542,11.677,11.677,0,0,0,7.452.2,11.65,11.65,0,0,0,14.164-11.361,7.341,7.341,0,0,0-.027-.771,11.16,11.16,0,0,0,.3-1.232Z" transform="translate(-71.701 -541.615)" opacity="0.1"/>
    <ellipse id="Elipse_177" data-name="Elipse 177" cx="124.79" cy="14.114" rx="124.79" ry="14.114" transform="translate(0 153.438)" fill="#f69837" opacity="0.1"/>
    <path id="Trazado_577" data-name="Trazado 577" d="M405.505,526.8c-5.036,16.433-7.06,47.8-7.06,47.8H276.727c.394-14.917-8.319-45.809-8.583-48.186-.224-1.983,7.841-12.248,10.51-15.584a2.789,2.789,0,0,1,2.184-1.049H390.855a2.812,2.812,0,0,1,1.6.5,41.9,41.9,0,0,1,12.849,14.4,2.781,2.781,0,0,1,.206,2.126Z" transform="translate(-217.699 -405.572)" fill="#3f3d56"/>
    <rect id="Rect치ngulo_266" data-name="Rect치ngulo 266" width="97.009" height="11.354" rx="5.677" transform="translate(69.452 138.956)" fill="#fff" opacity="0.1"/>
    <path id="Trazado_578" data-name="Trazado 578" d="M326.695,465.916s-6.071-18.748,3.961-21.387,31.944.793,31.944.793,17.161-8.713,36.967-1.846c0,0,28.251-8.451,33.8-.264s-1.322,22.706-1.322,22.706Z" transform="translate(-261.723 -351.147)" fill="#3f3d56"/>
    <path id="Trazado_579" data-name="Trazado 579" d="M270.54,505.383l5.016-10.033,4.225,19.538.047,9.069Z" transform="translate(-209.928 -384.41)" opacity="0.1"/>
    <path id="Trazado_580" data-name="Trazado 580" d="M746.835,505.383l-5.016-10.033L736,513.876l1.12,10.53Z" transform="translate(-571.107 -384.41)" opacity="0.1"/>
    <path id="Trazado_581" data-name="Trazado 581" d="M310.14,578.364l95.421-.524,1.055,10.561-96.106-.262Z" transform="translate(-240.656 -448.419)" fill="#3f3d56"/>
    <path id="Trazado_582" data-name="Trazado 582" d="M310.14,578.364l95.421-.524,1.055,10.561-96.106-.262Z" transform="translate(-240.656 -448.419)" opacity="0.1"/>
    <rect id="Rect치ngulo_267" data-name="Rect치ngulo 267" width="30.917" height="47.944" rx="7.46" transform="translate(199.843 119.608)" fill="#3f3d56"/>
    <circle id="Elipse_180" data-name="Elipse 180" cx="7.169" cy="7.169" r="7.169" transform="translate(208.133 124.649)" opacity="0.1"/>
    <circle id="Elipse_181" data-name="Elipse 181" cx="6.67" cy="6.67" r="6.67" transform="translate(208.632 125.149)" opacity="0.1"/>
    <circle id="Elipse_182" data-name="Elipse 182" cx="9.634" cy="9.634" r="9.634" transform="translate(205.668 143.244)" opacity="0.1"/>
    <circle id="Elipse_183" data-name="Elipse 183" cx="8.962" cy="8.962" r="8.962" transform="translate(206.34 143.916)" opacity="0.1"/>
  </g>
</svg>
