<svg xmlns="http://www.w3.org/2000/svg" xmlns:xlink="http://www.w3.org/1999/xlink" width="282.345" height="201.817" viewBox="0 0 282.345 201.817">
  <defs>
    <linearGradient id="linear-gradient" x1="0.5" y1="1" x2="0.5" gradientUnits="objectBoundingBox">
      <stop offset="0" stop-color="gray" stop-opacity="0.251"/>
      <stop offset="0.54" stop-color="gray" stop-opacity="0.122"/>
      <stop offset="1" stop-color="gray" stop-opacity="0.102"/>
    </linearGradient>
  </defs>
  <g id="Grupo_63" data-name="Grupo 63" transform="translate(-39.159 -70.045)">
    <g id="Grupo_26" data-name="Grupo 26" transform="translate(39.192 70.042)">
      <path id="Trazado_79" data-name="Trazado 79" d="M359.68,175.723c-6.54,13.491-19.82,22.513-33.582,28.462a127.661,127.661,0,0,1-59.053,9.846q-5.29-.352-10.547-1.125a133.028,133.028,0,0,1-35.265-10.269q-4.859-2.188-9.521-4.778a121.8,121.8,0,0,1-14.882-9.733q-1.78-1.359-3.51-2.786c-.8-.66-1.593-1.334-2.4-1.989a30.256,30.256,0,0,0-5.4-3.675,19.274,19.274,0,0,0-1.807-.8c-6.173-2.348-13.292-1.462-19.719.369-4.888,1.393-9.654,3.3-14.537,4.662a48.246,48.246,0,0,1-6.624,1.408,35.251,35.251,0,0,1-14.882-1.307l-.411-.128q-1.034-.325-2.05-.711l-.411-.158q-.985-.379-1.927-.815l-.411-.187q-.985-.458-1.927-.967c-.226-.118-.45-.246-.672-.367a40.287,40.287,0,0,1-9.639-7.505c-.081-.081-.158-.165-.246-.246-.391-.423-.775-.854-1.147-1.295-.138-.162-.276-.325-.411-.492q-.662-.807-1.277-1.652c-.062-.081-.121-.165-.18-.246a35.59,35.59,0,0,1-4.15-7.5c-.034-.081-.066-.165-.1-.246q-.492-1.268-.9-2.577c-.111-.364-.217-.738-.31-1.1-.032-.108-.062-.219-.089-.327-1.359-5.349-1.514-10.909-1.514-16.438v-1.932c.039-8.943.177-18.038,1.5-26.857a1.121,1.121,0,0,1,.027-.182,83.876,83.876,0,0,1,1.8-8.817,65.043,65.043,0,0,1,3.03-8.935,83.008,83.008,0,0,1,12.349-19.655c12.344-15.15,28.533-27.869,47.482-32.629a69.875,69.875,0,0,1,59.58,12.9c5.021,4,9.533,8.731,15.172,11.8,4.923,2.668,10.685,3.773,15.958,1.674,4.357-1.735,7.192-2.6,12.086-2.333A101.3,101.3,0,0,1,298.8,72.278c.384.14.768.286,1.149.431,24.789,9.484,46.1,28.327,57.175,52.54q.441.96.854,1.935C364.579,142.609,366.966,160.689,359.68,175.723Z" transform="translate(-81.835 -40.04)" fill="#3795f6" opacity="0.1"/>
      <ellipse id="Elipse_21" data-name="Elipse 21" cx="21.73" cy="3.49" rx="21.73" ry="3.49" transform="translate(8.213 175.906)" fill="#3795f6" opacity="0.1"/>
      <ellipse id="Elipse_22" data-name="Elipse 22" cx="38.529" cy="3.741" rx="38.529" ry="3.741" transform="translate(186.352 194.338)" fill="#3795f6" opacity="0.1"/>
      <rect id="Rectángulo_94" data-name="Rectángulo 94" width="233.921" height="132.508" rx="12.49" transform="translate(28.919 26.525)" fill="url(#linear-gradient)"/>
      <rect id="Rectángulo_95" data-name="Rectángulo 95" width="233.204" height="130.204" rx="12.49" transform="translate(29.291 28.388)" fill="#fff"/>
      <rect id="Rectángulo_96" data-name="Rectángulo 96" width="233.204" height="130.204" rx="12.49" transform="translate(29.291 28.388)" fill="#fff"/>
      <rect id="Rectángulo_97" data-name="Rectángulo 97" width="233.204" height="130.204" rx="12.49" transform="translate(29.291 28.388)" fill="#fff" opacity="0.04"/>
      <path id="Trazado_80" data-name="Trazado 80" d="M376.64,149.29H145.8a1.184,1.184,0,0,0-1.184,1.184v5H377.814v-5a1.184,1.184,0,0,0-1.174-1.184Z" transform="translate(-115.329 -122.396)" fill="#5a5773"/>
      <g id="buttons" transform="translate(32.348 28.388)">
        <circle id="Elipse_23" data-name="Elipse 23" cx="1.6" cy="1.6" r="1.6" fill="#fff"/>
        <circle id="Elipse_24" data-name="Elipse 24" cx="1.6" cy="1.6" r="1.6" transform="translate(4.308)" fill="#fff"/>
        <circle id="Elipse_25" data-name="Elipse 25" cx="1.6" cy="1.6" r="1.6" transform="translate(8.615)" fill="#fff"/>
      </g>
      <rect id="Rectángulo_98" data-name="Rectángulo 98" width="62.583" height="5.312" transform="translate(48.498 44.72)" fill="#3795f6" opacity="0.2"/>
      <rect id="Rectángulo_99" data-name="Rectángulo 99" width="194.791" height="81.711" transform="translate(48.498 66.019)" fill="#5a5773" opacity="0.1"/>
      <path id="Trazado_81" data-name="Trazado 81" d="M567,268.705h-3.335v-6.479a13.321,13.321,0,1,0-26.64-.18v6.658H533.7a5.568,5.568,0,0,0-5.551,5.551v26.638a5.568,5.568,0,0,0,5.551,5.551H567a5.565,5.565,0,0,0,5.548-5.551V274.256A5.565,5.565,0,0,0,567,268.705ZM552.3,286.021v9.541a1.991,1.991,0,0,1-1.846,2,1.947,1.947,0,0,1-2.038-1.945v-9.6a4.431,4.431,0,1,1,3.884,0Zm7.493-17.316H540.913v-6.658a9.435,9.435,0,0,1,18.87,0Z" transform="translate(-404.455 -197.357)" opacity="0.1"/>
      <path id="Trazado_82" data-name="Trazado 82" d="M567,266.705h-3.335v-6.479a13.321,13.321,0,1,0-26.64-.18v6.658H533.7a5.568,5.568,0,0,0-5.551,5.551v26.638a5.568,5.568,0,0,0,5.551,5.551H567a5.565,5.565,0,0,0,5.548-5.551V272.256A5.565,5.565,0,0,0,567,266.705ZM552.3,284.021v9.541a1.991,1.991,0,0,1-1.846,2,1.947,1.947,0,0,1-2.038-1.945v-9.6a4.431,4.431,0,1,1,3.884,0Zm7.493-17.316H540.913v-6.658a9.435,9.435,0,0,1,18.87,0Z" transform="translate(-404.455 -195.849)" fill="#3795f6"/>
      <rect id="Rectángulo_100" data-name="Rectángulo 100" width="19.716" height="4.655" transform="translate(223.572 58.154)" fill="#5a5773" opacity="0.1"/>
      <rect id="Rectángulo_101" data-name="Rectángulo 101" width="1.398" height="31.482" transform="translate(29.244 112.538)" fill="#535461"/>
      <path id="Trazado_130" data-name="Trazado 130" d="M127.691,618.234l-.089,1.418-.123,2-.052.834-.123,2-.054.834-.123,2-1.41,22.761a3.855,3.855,0,0,1-3.847,3.618h-7.33a3.852,3.852,0,0,1-3.845-3.618l-1.418-22.761-.123-2-.052-.834-.121-2.009-.052-.834-.123-2-.089-1.418a2,2,0,0,1,1.994-2.119H125.7a1.994,1.994,0,0,1,1.991,2.124Z" transform="translate(-88.262 -474.31)" fill="#3f3d56"/>
      <path id="Trazado_131" data-name="Trazado 131" d="M100.908,590.46l-.123,2H82.233l-.123-2Z" transform="translate(-61.567 -445.118)" fill="#9d9cb5"/>
      <path id="Trazado_132" data-name="Trazado 132" d="M101.269,601.98l-.123,2h-18.2l-.126-2Z" transform="translate(-62.102 -453.802)" fill="#9d9cb5"/>
      <path id="Trazado_133" data-name="Trazado 133" d="M101.634,613.51l-.123,2H83.666l-.126-2Z" transform="translate(-62.645 -462.494)" fill="#9d9cb5"/>
      <path id="Trazado_134" data-name="Trazado 134" d="M45.379,526.1A36.294,36.294,0,0,1,56.913,541.2a36.351,36.351,0,0,1-17.969-6.227A36.168,36.168,0,0,1,27.41,519.87,36.324,36.324,0,0,1,45.379,526.1Z" transform="translate(-26.97 -401.759)" fill="#3795f6"/>
      <path id="Trazado_135" data-name="Trazado 135" d="M27.46,519.87s10.186,5.661,13.452,10.338,16.039,11,16.039,11" transform="translate(-27.008 -401.759)" fill="none" stroke="#535461" stroke-miterlimit="10" stroke-width="2"/>
      <path id="Trazado_136" data-name="Trazado 136" d="M91.832,486.619a19.737,19.737,0,0,1,6.279,8.221A17.939,17.939,0,0,1,82.06,483.23,19.587,19.587,0,0,1,91.832,486.619Z" transform="translate(-68.168 -374.138)" fill="#3795f6"/>
      <path id="Trazado_137" data-name="Trazado 137" d="M82.06,483.18s5.543,3.077,7.32,5.624,8.731,5.986,8.731,5.986" transform="translate(-68.168 -374.1)" fill="none" stroke="#535461" stroke-miterlimit="10" stroke-width="2"/>
      <path id="Trazado_138" data-name="Trazado 138" d="M154.548,506.787a27.29,27.29,0,0,0-6.168,12.905,24.808,24.808,0,0,0,18.436-20.263A27.293,27.293,0,0,0,154.548,506.787Z" transform="translate(-118.164 -386.35)" fill="#3795f6"/>
      <path id="Trazado_139" data-name="Trazado 139" d="M166.816,499.43s-6.631,5.735-8.317,9.688S148.38,519.7,148.38,519.7" transform="translate(-118.164 -386.35)" fill="none" stroke="#535461" stroke-miterlimit="10" stroke-width="2"/>
    </g>
    <g id="Grupo_62" data-name="Grupo 62" transform="translate(120 -5.262)">
      <ellipse id="Elipse_92" data-name="Elipse 92" cx="31.416" cy="31.416" rx="31.416" ry="31.416" transform="translate(108.736 198.638)" fill="#2f2e41"/>
      <rect id="Rectángulo_207" data-name="Rectángulo 207" width="9.544" height="17.1" transform="translate(125.768 254.667) rotate(0.16)" fill="#2f2e41"/>
      <rect id="Rectángulo_208" data-name="Rectángulo 208" width="9.544" height="17.1" transform="translate(144.856 254.72) rotate(0.16)" fill="#2f2e41"/>
      <ellipse id="Elipse_93" data-name="Elipse 93" cx="7.953" cy="2.983" rx="7.953" ry="2.983" transform="translate(141.615 274.995) rotate(-179.84)" fill="#2f2e41"/>
      <ellipse id="Elipse_94" data-name="Elipse 94" cx="7.953" cy="2.983" rx="7.953" ry="2.983" transform="translate(161.616 274.651) rotate(-179.84)" fill="#2f2e41"/>
      <path id="Trazado_339" data-name="Trazado 339" d="M10.737,0A10.737,10.737,0,1,1,0,10.737,10.737,10.737,0,0,1,10.737,0Z" transform="translate(131.144 211.365)" fill="#fff"/>
      <ellipse id="Elipse_96" data-name="Elipse 96" cx="3.579" cy="3.579" rx="3.579" ry="3.579" transform="translate(139.39 222.523)" fill="#3f3d56"/>
      <ellipse id="Elipse_91" data-name="Elipse 91" cx="4.931" cy="15.708" rx="4.931" ry="15.708" transform="matrix(-0.326, -0.946, 0.946, -0.326, 113.928, 241.378)" fill="#2f2e41" stroke="#fff" stroke-width="1"/>
      <path id="Trazado_314" data-name="Trazado 314" d="M961.852,711.562c.63,3.365,4.663,3.447,4.663,3.447s4.557.236,5.044-3.783c.005-1.382.012-1.209-5.026-1.22S961.858,710.18,961.852,711.562Z" transform="translate(-825.01 -466.346)" fill="#fff"/>
      <ellipse id="Elipse_97" data-name="Elipse 97" cx="15.708" cy="4.931" rx="15.708" ry="4.931" transform="translate(170.346 238.204) rotate(-170)" fill="#2f2e41" stroke="#fff" stroke-width="1"/>
    </g>
  </g>
</svg>
