<svg xmlns="http://www.w3.org/2000/svg" width="300.996" height="213.144" viewBox="0 0 300.996 213.144">
  <g id="Grupo_47" data-name="Grupo 47" transform="translate(-22)">
    <rect id="Rectángulo_176" data-name="Rectángulo 176" width="300.996" height="0.872" transform="translate(22 212.177)" fill="#2f2e41"/>
    <rect id="Rectángulo_198" data-name="Rectángulo 198" width="32.264" height="28.776" transform="translate(154.698 43.444)" fill="#3795f6" opacity="0.3"/>
    <ellipse id="Elipse_84" data-name="Elipse 84" cx="34.444" cy="34.444" rx="34.444" ry="34.444" transform="translate(215.521 129.119)" fill="#2f2e41"/>
    <rect id="Rectángulo_205" data-name="Rectángulo 205" width="10.464" height="18.748" transform="translate(255.197 190.595)" fill="#2f2e41"/>
    <rect id="Rectángulo_206" data-name="Rectángulo 206" width="10.464" height="18.748" transform="translate(234.269 190.595)" fill="#2f2e41"/>
    <ellipse id="Elipse_85" data-name="Elipse 85" cx="8.72" cy="3.27" rx="8.72" ry="3.27" transform="translate(248.221 206.291)" fill="#2f2e41"/>
    <ellipse id="Elipse_86" data-name="Elipse 86" cx="8.72" cy="3.27" rx="8.72" ry="3.27" transform="translate(227.293 205.855)" fill="#2f2e41"/>
    <ellipse id="Elipse_87" data-name="Elipse 87" cx="11.772" cy="11.772" rx="11.772" ry="11.772" transform="translate(237.321 143.071)" fill="#fff"/>
    <ellipse id="Elipse_88" data-name="Elipse 88" cx="3.924" cy="3.924" rx="3.924" ry="3.924" transform="translate(245.169 145.687)" fill="#3f3d56"/>
    <path id="Trazado_312" data-name="Trazado 312" d="M226.238,573.662c2.781-12.456-6.109-25.042-19.857-28.111s-27.148,4.539-29.929,16.994,6.33,17.049,20.078,20.119S223.456,586.117,226.238,573.662Z" transform="translate(57.14 -442.131)" fill="#efc94d"/>
    <ellipse id="Elipse_89" data-name="Elipse 89" cx="17.222" cy="5.407" rx="17.222" ry="5.407" transform="translate(226.258 143.346) rotate(-114.923)" fill="#2f2e41"/>
    <ellipse id="Elipse_90" data-name="Elipse 90" cx="5.407" cy="17.222" rx="5.407" ry="17.222" transform="translate(283.844 153.664) rotate(-152.107)" fill="#2f2e41"/>
    <ellipse id="Elipse_91" data-name="Elipse 91" cx="5.407" cy="17.222" rx="5.407" ry="17.222" transform="matrix(-0.933, -0.36, 0.36, -0.933, 122.556, 155.964)" fill="#2f2e41"/>
    <ellipse id="Elipse_92" data-name="Elipse 92" cx="34.444" cy="34.444" rx="34.444" ry="34.444" transform="translate(57.35 129.425)" fill="#2f2e41"/>
    <rect id="Rectángulo_207" data-name="Rectángulo 207" width="10.464" height="18.748" transform="translate(76.024 190.855) rotate(0.16)" fill="#2f2e41"/>
    <rect id="Rectángulo_208" data-name="Rectángulo 208" width="10.464" height="18.748" transform="translate(96.952 190.914) rotate(0.16)" fill="#2f2e41"/>
    <ellipse id="Elipse_93" data-name="Elipse 93" cx="8.72" cy="3.27" rx="8.72" ry="3.27" transform="translate(93.399 213.144) rotate(-179.84)" fill="#2f2e41"/>
    <ellipse id="Elipse_94" data-name="Elipse 94" cx="8.72" cy="3.27" rx="8.72" ry="3.27" transform="translate(114.329 212.767) rotate(-179.84)" fill="#2f2e41"/>
    <ellipse id="Elipse_95" data-name="Elipse 95" cx="11.772" cy="11.772" rx="11.772" ry="11.772" transform="translate(80.919 143.379)" fill="#fff"/>
    <ellipse id="Elipse_96" data-name="Elipse 96" cx="3.924" cy="3.924" rx="3.924" ry="3.924" transform="translate(88.767 151.227)" fill="#3f3d56"/>
    <ellipse id="Elipse_97" data-name="Elipse 97" cx="17.222" cy="5.407" rx="17.222" ry="5.407" transform="translate(66.254 160.078) rotate(-154.465)" fill="#2f2e41"/>
    <path id="Trazado_314" data-name="Trazado 314" d="M933.508,708.185c-.009,3.371,8.652,10.052,18.284,10.079s18.69-9.439,18.7-12.81-9.033.629-18.665.6S933.521,704.814,933.508,708.185Z" transform="translate(-858.668 -531.938)" fill="#fff"/>
    <ellipse id="Elipse_99" data-name="Elipse 99" cx="34.444" cy="34.444" rx="34.444" ry="34.444" transform="translate(205.534 27.175)" fill="#2f2e41"/>
    <rect id="Rectángulo_209" data-name="Rectángulo 209" width="10.464" height="18.748" transform="translate(263.577 103.873) rotate(169.739)" fill="#2f2e41"/>
    <rect id="Rectángulo_210" data-name="Rectángulo 210" width="10.464" height="18.748" transform="translate(242.984 107.601) rotate(169.739)" fill="#2f2e41"/>
    <ellipse id="Elipse_100" data-name="Elipse 100" cx="3.27" cy="8.72" rx="3.27" ry="8.72" transform="translate(231.5 118.981) rotate(-130.261)" fill="#2f2e41"/>
    <ellipse id="Elipse_101" data-name="Elipse 101" cx="3.27" cy="8.72" rx="3.27" ry="8.72" transform="translate(251.664 115.331) rotate(-130.261)" fill="#2f2e41"/>
    <ellipse id="Elipse_102" data-name="Elipse 102" cx="11.772" cy="11.772" rx="11.772" ry="11.772" transform="translate(225.795 41.422)" fill="#fff"/>
    <ellipse id="Elipse_103" data-name="Elipse 103" cx="3.924" cy="3.924" rx="3.924" ry="3.924" transform="translate(228.805 45.051)" fill="#3f3d56"/>
    <path id="Trazado_315" data-name="Trazado 315" d="M265.287,333.38c.518-12.752-10.472-23.553-24.547-24.124s-25.905,9.3-26.423,22.054,9.266,15.649,23.341,16.221S264.769,346.132,265.287,333.38Z" transform="translate(1.864 -309.232)" fill="#efc94d"/>
    <ellipse id="Elipse_104" data-name="Elipse 104" cx="17.222" cy="5.407" rx="17.222" ry="5.407" transform="translate(223.753 64.462) rotate(-167.09)" fill="#2f2e41"/>
    <ellipse id="Elipse_105" data-name="Elipse 105" cx="17.222" cy="5.407" rx="17.222" ry="5.407" transform="translate(291.367 75.706) rotate(-167.09)" fill="#2f2e41"/>
    <path id="Trazado_316" data-name="Trazado 316" d="M270.227,476.4a7.848,7.848,0,0,1-15.445,2.8c-.772-4.265,2.526-5.774,6.791-6.546S269.455,472.136,270.227,476.4Z" transform="translate(-20.788 -401.207)" fill="#fff"/>
    <rect id="Rectángulo_211" data-name="Rectángulo 211" width="32.264" height="28.776" transform="translate(198.044 51.939) rotate(163.311)" fill="#3f3d56"/>
    <path id="Trazado_317" data-name="Trazado 317" d="M406.58,419.352l.405-.13c-.144-.449-3.589-11.014-8.66-12.7l-.134.4C403.057,408.544,406.545,419.245,406.58,419.352Z" transform="translate(-219.995 -364.104)" fill="#f69837"/>
    <ellipse id="Elipse_106" data-name="Elipse 106" cx="2.128" cy="2.128" rx="2.128" ry="2.128" transform="translate(173.394 38.764)" fill="#f69837"/>
    <path id="Trazado_318" data-name="Trazado 318" d="M414.23,416.734a6.626,6.626,0,0,0,3.317-.84,6.039,6.039,0,0,0-6.559-.257A6.627,6.627,0,0,0,414.23,416.734Z" transform="translate(-236.138 -368.767)" fill="#f69837"/>
  </g>
</svg>
