<svg xmlns="http://www.w3.org/2000/svg" width="24.291" height="14.395" viewBox="0 0 24.291 14.395">
  <path id="Icon_awesome-align-left" data-name="Icon awesome-align-left" d="M.527,15.971H10.653a.868.868,0,0,0,.5-.145.437.437,0,0,0,.205-.35V14a.437.437,0,0,0-.205-.35.868.868,0,0,0-.5-.145H.527a.868.868,0,0,0-.5.145A.437.437,0,0,0-.173,14v1.481a.437.437,0,0,0,.205.35.868.868,0,0,0,.5.145Zm0-11.923H23.417a.868.868,0,0,0,.5-.145.437.437,0,0,0,.205-.35V2.072a.437.437,0,0,0-.205-.35.868.868,0,0,0-.5-.145H.527a.868.868,0,0,0-.5.145.437.437,0,0,0-.205.35V3.553a.437.437,0,0,0,.205.35.868.868,0,0,0,.5.145ZM16.534,7.557H.7c-.483,0-.874.277-.874.618V9.41c0,.341.391.618.874.618H16.534c.483,0,.874-.277.874-.618V8.175C17.408,7.833,17.017,7.557,16.534,7.557Z" transform="translate(0.173 -1.577)" color="rgba(var(--ion-text-color-rgb, 0, 0, 0), 0.54);"/>
</svg>
