<svg xmlns="http://www.w3.org/2000/svg" width="42" height="42" viewBox="0 0 42 42">
  <g id="Grupo_375" data-name="Grupo 375" transform="translate(18.606 -492.061)">
    <g id="Grupo_371" data-name="Grupo 371" transform="translate(-2.338 -2.363)">
      <path id="Icon_awesome-user" data-name="Icon awesome-user" d="M6.573,7.512A3.756,3.756,0,1,0,2.817,3.756,3.756,3.756,0,0,0,6.573,7.512ZM9.2,8.451H8.71a5.108,5.108,0,0,1-4.278,0h-.49A3.945,3.945,0,0,0,0,12.4v1.221a1.409,1.409,0,0,0,1.408,1.408H11.737a1.409,1.409,0,0,0,1.408-1.408V12.4A3.945,3.945,0,0,0,9.2,8.451Z" transform="translate(-12.268 507.684)" fill="none" stroke="#1f3b5b" stroke-width="1"/>
      <path id="Icon_awesome-user-2" data-name="Icon awesome-user" d="M6.573,7.512A3.756,3.756,0,1,0,2.817,3.756,3.756,3.756,0,0,0,6.573,7.512ZM9.2,8.451H8.71a5.108,5.108,0,0,1-4.278,0h-.49A3.945,3.945,0,0,0,0,12.4v1.221a1.409,1.409,0,0,0,1.408,1.408H11.737a1.409,1.409,0,0,0,1.408-1.408V12.4A3.945,3.945,0,0,0,9.2,8.451Z" transform="translate(7.6 507.684)" fill="none" stroke="#1f3b5b" stroke-width="1"/>
    </g>
    <path id="Icon_awesome-user-3" data-name="Icon awesome-user" d="M10.128,11.575A5.787,5.787,0,1,0,4.341,5.788a5.787,5.787,0,0,0,5.787,5.787Zm4.051,1.447h-.755a7.871,7.871,0,0,1-6.592,0H6.077A6.078,6.078,0,0,0,0,19.1V20.98a2.171,2.171,0,0,0,2.17,2.17H18.086a2.171,2.171,0,0,0,2.17-2.17V19.1a6.078,6.078,0,0,0-6.077-6.078Z" transform="translate(-8.183 501.06)" fill="#fff" stroke="#f69837" stroke-width="1.5"/>
    <rect id="Rectángulo_1" data-name="Rectángulo 1" width="42" height="42" transform="translate(-18.606 492.061)" fill="rgba(255,255,255,0)"/>
  </g>
</svg>
