<svg xmlns="http://www.w3.org/2000/svg" width="32.171" height="42.259" viewBox="0 0 32.171 42.259">
  <g id="Grupo_337" data-name="Grupo 337" transform="translate(-148 -236.852)">
    <path id="Trazado_679" data-name="Trazado 679" d="M7.149,0H25.022a7.149,7.149,0,0,1,7.149,7.149v35.11l-10.7-10.088H7.149A7.149,7.149,0,0,1,0,25.022V7.149A7.149,7.149,0,0,1,7.149,0Z" transform="translate(148 236.852)" fill="#f69837"/>
    <path id="Icon_ionic-md-pin" data-name="Icon ionic-md-pin" d="M12.621,2.25A5.83,5.83,0,0,0,6.75,8c0,4.315,5.871,10.685,5.871,10.685S18.492,12.319,18.492,8A5.83,5.83,0,0,0,12.621,2.25Zm0,7.809A2.055,2.055,0,1,1,14.718,8,2.056,2.056,0,0,1,12.621,10.059Z" transform="translate(151.822 243.223)" fill="#fff"/>
  </g>
</svg>
